<?xml version="1.0" encoding="UTF-8"?><!DOCTYPE svg PUBLIC "-//W3C//DTD SVG 1.1//EN" "http://www.w3.org/Graphics/SVG/1.1/DTD/svg11.dtd"><svg xmlns="http://www.w3.org/2000/svg"><defs/><symbol id="dribbble" viewBox="0 0 20 20">
    <g id="Page-1" stroke="none" stroke-width="1" fill="none" fill-rule="evenodd">
        <g id="Artboard-1" transform="translate(-401.000000, -409.000000)" fill="#333333">
            <g id="dribbble-logo" transform="translate(401.000000, 409.000000)">
                <g id="Capa_1">
                    <path d="M18.6393166,4.97507973 C17.7460137,3.44469248 16.5343052,2.23298405 15.0038724,1.33972665 C13.4731663,0.446514806 11.8021868,0 9.98965831,0 C8.17731207,0 6.50583144,0.446514806 4.97539863,1.33972665 C3.44487472,2.23284738 2.23316629,3.44455581 1.33986333,4.97507973 C0.446514806,6.50569476 0,8.1771754 0,9.98938497 C0,11.8016856 0.446651481,13.4728929 1.33972665,15.0035991 C2.23298405,16.5339863 3.44469248,17.7456948 4.9752164,18.6390433 C6.50583144,19.5322096 8.1771754,19.9787699 9.98947608,19.9787699 C11.8017768,19.9787699 13.473303,19.5322096 15.0038269,18.6390433 C16.5342597,17.7460137 17.7459226,16.5339863 18.6391344,15.0035991 C19.5322096,13.4730296 19.9786788,11.8015945 19.9786788,9.98938497 C19.9787244,8.17699317 19.5322096,6.50546697 18.6393166,4.97507973 L18.6393166,4.97507973 Z M9.98952164,1.45681093 C12.1399089,1.45681093 14.0173121,2.16783599 15.6214579,3.58984055 L15.458861,3.81731207 C15.3938497,3.90851936 15.2312528,4.083918 14.9712073,4.34419134 C14.7111162,4.6042369 14.4271071,4.8515262 14.1193166,5.08560364 C13.8112528,5.31977221 13.3931207,5.58637813 12.8639636,5.88555809 C12.3349886,6.18473804 11.7713895,6.44719818 11.1729841,6.67261959 C10.1758542,4.83412301 9.10938497,3.17790433 7.97339408,1.70387244 C8.65854214,1.5391344 9.33052392,1.45681093 9.98952164,1.45681093 L9.98952164,1.45681093 Z M3.30405467,4.6952164 C4.13644647,3.6461959 5.15084282,2.83963554 6.3476082,2.276082 C7.4228246,3.70683371 8.48063781,5.34583144 9.52127563,7.19275626 C6.88519362,7.88646925 4.25785877,8.23334852 1.63908884,8.23321185 C1.91671982,6.923918 2.47166287,5.74446469 3.30405467,4.6952164 L3.30405467,4.6952164 Z M2.02915718,13.0657859 C1.64756264,12.0902961 1.45681093,11.064738 1.45681093,9.98938497 C1.45681093,9.86792711 1.46127563,9.77685649 1.46984055,9.71621868 C4.6090205,9.71621868 7.52701595,9.31312073 10.2237813,8.50651481 C10.5013212,9.04410023 10.7311162,9.52537585 10.9132118,9.95038724 C10.8780866,9.96769932 10.8221412,9.98710706 10.7440547,10.0088383 C10.6657403,10.0305239 10.6095216,10.0455581 10.574533,10.0543508 L10.0933941,10.2234169 C9.76373576,10.3448747 9.33220957,10.5530296 8.7991344,10.8476993 C8.26592255,11.1428246 7.70013667,11.4938041 7.10177677,11.9014579 C6.50341686,12.3091572 5.88555809,12.8489294 5.24829157,13.5211845 C4.61093394,14.1931663 4.07548975,14.9148519 3.64191344,15.6865604 C2.94820046,14.9148519 2.41066059,14.0410023 2.02915718,13.0657859 L2.02915718,13.0657859 Z M9.98952164,18.5220957 C7.96036446,18.5220957 6.14806378,17.8716629 4.55248292,16.5710706 L4.7476082,16.7142141 C5.05107062,16.0463326 5.49758542,15.4046014 6.08738041,14.7890661 C6.67708428,14.1735308 7.24501139,13.6768565 7.79129841,13.2995444 C8.33758542,12.9225968 8.9315262,12.5671071 9.57330296,12.2328474 C10.2149431,11.8992255 10.6526196,11.6865604 10.8869704,11.5958087 C11.121139,11.5047836 11.3076082,11.4330752 11.4463326,11.3809567 L11.4722096,11.3678815 L11.4984055,11.3678815 C12.3479271,13.5964009 12.9552164,15.7557175 13.3192711,17.8455125 C12.2440091,18.2966287 11.1342597,18.521959 9.98952164,18.5220957 L9.98952164,18.5220957 Z M17.1697494,14.60041 C16.5280182,15.5933941 15.7257403,16.4151708 14.763508,17.0652847 C14.4076993,15.0709339 13.8530296,13.0372665 13.0984055,10.9649658 C14.8240091,10.6958542 16.5972665,10.8218223 18.4182688,11.3419134 C18.227426,12.5212301 17.8111617,13.6076082 17.1697494,14.60041 L17.1697494,14.60041 Z M18.3920729,9.87234624 C18.3053759,9.85512528 18.1968565,9.83544419 18.0668337,9.81389522 C17.9368109,9.79234624 17.7784055,9.7661959 17.5919362,9.73585421 C17.4057403,9.70551253 17.1973121,9.67740319 16.9676993,9.65134396 C16.7378588,9.6253303 16.4929385,9.60154897 16.232574,9.57986333 C15.9725285,9.55808656 15.6949886,9.54091116 15.4003189,9.52779043 C15.1051481,9.51485194 14.8061503,9.50829157 14.5025968,9.50829157 C14.1993622,9.50829157 13.88041,9.51708428 13.5467426,9.53430524 C13.2129841,9.55138952 12.8900683,9.58209567 12.5779499,9.62537585 C12.551754,9.581959 12.5193166,9.51038724 12.4803189,9.41061503 C12.4413667,9.3109795 12.4129385,9.23498861 12.3961276,9.18296128 C12.2311617,8.81876993 12.0403189,8.40683371 11.8233257,7.94738041 C12.4216856,7.70441913 12.9919818,7.42487472 13.5342597,7.10829157 C14.0760364,6.79170843 14.5092938,6.51006834 14.8346697,6.26296128 C15.1599089,6.01558087 15.4676993,5.7532574 15.7581321,5.47585421 C16.0487472,5.19840547 16.2370843,5.00555809 16.3241002,4.89712984 C16.4109339,4.78851936 16.4932574,4.68236902 16.5712073,4.57845103 L16.5842825,4.5653303 C17.8502506,6.10883827 18.4965376,7.88637813 18.5222323,9.89831435 L18.3920729,9.87234624 L18.3920729,9.87234624 Z" id="Shape"/>
                </g>
            </g>
        </g>
    </g>
</symbol><symbol id="facebook" viewBox="0 0 11 20">
    <g id="Page-1" stroke="none" stroke-width="1" fill="none" fill-rule="evenodd">
        <g id="Artboard-1" transform="translate(-296.000000, -409.000000)" fill="#333333">
            <g id="facebook-logo" transform="translate(296.000000, 409.000000)">
                <g id="Capa_1">
                    <path d="M9.82878491,0.00412371134 L7.38282264,0 C4.63486792,0 2.85901887,1.91443299 2.85901887,4.87752577 L2.85901887,7.12639175 L0.399713208,7.12639175 C0.1872,7.12639175 0.015109434,7.30742268 0.015109434,7.53072165 L0.015109434,10.7890722 C0.015109434,11.0123711 0.187396226,11.1931959 0.399713208,11.1931959 L2.85901887,11.1931959 L2.85901887,19.4150515 C2.85901887,19.6383505 3.03110943,19.8191753 3.24362264,19.8191753 L6.45231698,19.8191753 C6.66483019,19.8191753 6.83692075,19.6381443 6.83692075,19.4150515 L6.83692075,11.1931959 L9.71242264,11.1931959 C9.92493585,11.1931959 10.0970264,11.0123711 10.0970264,10.7890722 L10.0982038,7.53072165 C10.0982038,7.42350515 10.0575849,7.32082474 9.98556981,7.24494845 C9.91355472,7.16907216 9.81544151,7.12639175 9.71340377,7.12639175 L6.83692075,7.12639175 L6.83692075,5.22 C6.83692075,4.30371134 7.04472453,3.8385567 8.18067925,3.8385567 L9.82839245,3.83793814 C10.0407094,3.83793814 10.2128,3.65690722 10.2128,3.43381443 L10.2128,0.408247423 C10.2128,0.185360825 10.0409057,0.00453608247 9.82878491,0.00412371134 L9.82878491,0.00412371134 Z" id="Shape"/>
                </g>
            </g>
        </g>
    </g>
</symbol><symbol id="github" viewBox="0 0 20 20">
    <g id="Page-1" stroke="none" stroke-width="1" fill="none" fill-rule="evenodd">
        <g id="Artboard-1" transform="translate(-346.000000, -409.000000)" fill="#333333">
            <g id="github" transform="translate(346.000000, 409.000000)">
                <g id="Layer_1">
                    <path d="M9.97671233,0 C4.46705479,0 0,4.46705479 0,9.97671233 C0,15.4869863 4.46705479,19.9534247 9.97671233,19.9534247 C15.4863699,19.9534247 19.9534247,15.4869863 19.9534247,9.97671233 C19.9533562,4.46705479 15.4863014,0 9.97671233,0 L9.97671233,0 Z M12.7713699,17.5770548 C12.7139726,16.7963699 12.6497945,15.8292466 12.6460274,15.4376712 C12.6210959,15.1371233 12.5886301,14.3726712 11.8628767,13.8844521 C14.7442466,13.6431507 16.115411,12.0506164 16.2139726,9.94616438 C16.2963014,8.74773973 15.819863,7.69390411 14.9737671,6.84342466 C15.0167808,5.93369863 14.9463014,4.85554795 14.8877397,4.38171233 C14.2380137,4.19465753 12.7228082,4.99465753 12.2993836,5.3369863 C11.4064384,4.99027397 9.2209589,4.86869863 7.89280822,5.3369863 C6.95123288,4.67479452 5.87938356,4.26575342 5.29513699,4.37986301 C4.75575342,5.57520548 5.10246575,6.70506849 5.20780822,6.83972603 C4.51315068,7.47452055 3.54417808,8.25582192 3.80732877,9.89260274 C4.22945205,12.2926027 5.9180137,13.5871233 8.63664384,13.9038356 C8.05678082,14.0223288 7.95883562,14.4550685 7.91020548,14.6427397 C6.08445205,15.3959589 5.56260274,14.1776027 5.33184932,13.8602055 C4.56554795,12.9117808 3.87773973,13.1867808 3.83534247,13.2017123 C3.79417808,13.2166438 3.7630137,13.2765068 3.76739726,13.3052055 C3.8060274,13.509726 4.22321918,13.7173973 4.24376712,13.7341781 C4.80931507,14.1556849 5.01883562,14.9170548 5.14787671,15.1340411 C5.95910959,16.4678082 7.84472603,15.914726 7.86280822,15.9259589 C7.8640411,16.0425342 7.84972603,17.0240411 7.83849315,17.7878767 C4.40034247,16.8487671 1.87061644,13.7123288 1.87061644,9.97671233 C1.87061644,5.49965753 5.49965753,1.87068493 9.97664384,1.87068493 C14.4536301,1.87068493 18.0827397,5.49965753 18.0827397,9.97671233 C18.0827397,13.470411 15.8691781,16.4378082 12.7713699,17.5770548 L12.7713699,17.5770548 Z" id="Shape"/>
                </g>
            </g>
        </g>
    </g>
</symbol><symbol id="instagram" viewBox="0 0 20 20">
    <g id="Page-1" stroke="none" stroke-width="1" fill="none" fill-rule="evenodd">
        <g id="Artboard-1" transform="translate(-236.000000, -409.000000)" fill="#333333">
            <g id="instagram-logo" transform="translate(236.000000, 409.000000)">
                <g id="Layer_1">
                    <g id="Group">
                        <path d="M14.4007059,0 L5.48870588,0 C2.46223529,0 0,2.46235294 0,5.48882353 L0,14.4008235 C0,17.4274118 2.46223529,19.8896471 5.48870588,19.8896471 L14.4007059,19.8896471 C17.4274118,19.8896471 19.8896471,17.4272941 19.8896471,14.4008235 L19.8896471,5.48882353 C19.8897647,2.46235294 17.4274118,0 14.4007059,0 L14.4007059,0 Z M18.1250588,14.4008235 C18.1250588,16.4543529 16.4543529,18.1249412 14.4008235,18.1249412 L5.48870588,18.1249412 C3.43529412,18.1250588 1.76470588,16.4543529 1.76470588,14.4008235 L1.76470588,5.48882353 C1.76470588,3.43541176 3.43529412,1.76470588 5.48870588,1.76470588 L14.4007059,1.76470588 C16.4542353,1.76470588 18.1249412,3.43541176 18.1249412,5.48882353 L18.1249412,14.4008235 L18.1250588,14.4008235 Z" id="Shape"/>
                        <path d="M9.94482353,4.82 C7.11882353,4.82 4.81976471,7.11905882 4.81976471,9.94505882 C4.81976471,12.7709412 7.11882353,15.0698824 9.94482353,15.0698824 C12.7708235,15.0698824 15.0698824,12.7709412 15.0698824,9.94505882 C15.0698824,7.11905882 12.7708235,4.82 9.94482353,4.82 L9.94482353,4.82 Z M9.94482353,13.3050588 C8.092,13.3050588 6.58447059,11.7977647 6.58447059,9.94494118 C6.58447059,8.092 8.09188235,6.58458824 9.94482353,6.58458824 C11.7977647,6.58458824 13.3051765,8.092 13.3051765,9.94494118 C13.3051765,11.7977647 11.7976471,13.3050588 9.94482353,13.3050588 L9.94482353,13.3050588 Z" id="Shape"/>
                        <path d="M15.2848235,3.32364706 C14.9448235,3.32364706 14.6108235,3.46129412 14.3707059,3.70247059 C14.1294118,3.94247059 13.9907059,4.27658824 13.9907059,4.61776471 C13.9907059,4.95788235 14.1295294,5.29188235 14.3707059,5.53305882 C14.6107059,5.77305882 14.9448235,5.91188235 15.2848235,5.91188235 C15.626,5.91188235 15.9589412,5.77305882 16.2001176,5.53305882 C16.4412941,5.29188235 16.5789412,4.95776471 16.5789412,4.61776471 C16.5789412,4.27658824 16.4412941,3.94247059 16.2001176,3.70247059 C15.9601176,3.46129412 15.626,3.32364706 15.2848235,3.32364706 L15.2848235,3.32364706 Z" id="Shape"/>
                    </g>
                </g>
            </g>
        </g>
    </g>
</symbol><symbol id="left" viewBox="0 0 20 9">
    <title>left</title>
    
    <g id="Page-1" stroke="none" stroke-width="1" fill="none" fill-rule="evenodd">
        <g id="Artboard-1" fill="#000000">
            <g id="left">
                <g id="Capa_1">
                    <path d="M19.8698785,3.06388664 C19.8003239,2.99453441 19.7119433,2.95991903 19.6038866,2.95991903 L5.17842105,2.95991903 L5.17842105,0.370728745 C5.17842105,0.216518219 5.10506073,0.1048583 4.95882591,0.0355060729 C4.81222672,-0.0260728745 4.67736842,-0.00291497976 4.55417004,0.1048583 L0.115506073,4.19668016 C0.0384615385,4.27384615 0,4.36631579 0,4.47412955 C0,4.5742915 0.0384615385,4.66299595 0.115506073,4.74 L4.55421053,8.78566802 C4.67753036,8.88582996 4.81238866,8.90534413 4.9588664,8.8434413 C5.10510121,8.78190283 5.17846154,8.67024291 5.17846154,8.5082996 L5.17846154,5.91910931 L19.60417,5.91910931 C19.7119838,5.91910931 19.8006883,5.88433198 19.869919,5.81518219 C19.9391903,5.74591093 19.9738057,5.65740891 19.9738057,5.54947368 L19.9738057,3.33 C19.9739271,3.22210526 19.9391498,3.13331984 19.8698785,3.06388664 L19.8698785,3.06388664 Z" id="Shape"/>
                </g>
            </g>
        </g>
    </g>
</symbol><symbol id="twitter" viewBox="0 0 25 21">
    <g id="Page-1" stroke="none" stroke-width="1" fill="none" fill-rule="evenodd">
        <g id="twitter">
            <path d="M25,2.42066993 C24.0798611,2.82839052 23.0925654,3.10490196 22.0552288,3.22834967 C23.1144199,2.5940768 23.9252042,1.58803105 24.3094771,0.392933007 C23.3159314,0.980310458 22.2192402,1.4068219 21.0506944,1.63803105 C20.114951,0.639787582 18.7839461,0.0180147059 17.3076389,0.0180147059 C14.4753676,0.0180147059 12.1789216,2.31446078 12.1789216,5.14517974 C12.1789216,5.54665033 12.2242239,5.93876634 12.3117239,6.31372549 C8.05004085,6.0996732 4.27107843,4.05788399 1.74187092,0.955310458 C1.2997549,1.71143791 1.04824346,2.59248366 1.04824346,3.53296569 C1.04824346,5.3123366 1.95433007,6.88235294 3.32908497,7.80089869 C2.48860294,7.77279412 1.69812092,7.54158497 1.0060866,7.15727124 L1.0060866,7.22132353 C1.0060866,9.70522876 2.7745098,11.778268 5.11936275,12.2500817 C4.68974673,12.3656863 4.23672386,12.4297386 3.76805556,12.4297386 C3.43688725,12.4297386 3.11662582,12.3969363 2.80261438,12.3344363 C3.45559641,14.3731209 5.34901961,15.8556373 7.59236111,15.8962827 C5.8379902,17.2710376 3.62589869,18.0880719 1.22324346,18.0880719 C0.809272876,18.0880719 0.401511438,18.0630719 4.08496732e-05,18.0177696 C2.26993464,19.4753268 4.96474673,20.3251634 7.86107026,20.3251634 C17.2952206,20.3251634 22.4520833,12.5109886 22.4520833,5.73415033 L22.4348856,5.07022059 C23.4424837,4.35155229 24.3141748,3.44861111 25,2.42066993 Z" id="Shape"/>
        </g>
    </g>
</symbol></svg>