<?xml version="1.0" encoding="UTF-8"?>
<svg width="20px" height="20px" viewBox="0 0 20 20" version="1.1" xmlns="http://www.w3.org/2000/svg" xmlns:xlink="http://www.w3.org/1999/xlink">
    <g id="Page-1" stroke="none" stroke-width="1" fill="none" fill-rule="evenodd">
        <g id="Artboard-1" transform="translate(-401.000000, -409.000000)" fill="#333333">
            <g id="dribbble-logo" transform="translate(401.000000, 409.000000)">
                <g id="Capa_1">
                    <path d="M18.6393166,4.97507973 C17.7460137,3.44469248 16.5343052,2.23298405 15.0038724,1.33972665 C13.4731663,0.446514806 11.8021868,0 9.98965831,0 C8.17731207,0 6.50583144,0.446514806 4.97539863,1.33972665 C3.44487472,2.23284738 2.23316629,3.44455581 1.33986333,4.97507973 C0.446514806,6.50569476 0,8.1771754 0,9.98938497 C0,11.8016856 0.446651481,13.4728929 1.33972665,15.0035991 C2.23298405,16.5339863 3.44469248,17.7456948 4.9752164,18.6390433 C6.50583144,19.5322096 8.1771754,19.9787699 9.98947608,19.9787699 C11.8017768,19.9787699 13.473303,19.5322096 15.0038269,18.6390433 C16.5342597,17.7460137 17.7459226,16.5339863 18.6391344,15.0035991 C19.5322096,13.4730296 19.9786788,11.8015945 19.9786788,9.98938497 C19.9787244,8.17699317 19.5322096,6.50546697 18.6393166,4.97507973 L18.6393166,4.97507973 Z M9.98952164,1.45681093 C12.1399089,1.45681093 14.0173121,2.16783599 15.6214579,3.58984055 L15.458861,3.81731207 C15.3938497,3.90851936 15.2312528,4.083918 14.9712073,4.34419134 C14.7111162,4.6042369 14.4271071,4.8515262 14.1193166,5.08560364 C13.8112528,5.31977221 13.3931207,5.58637813 12.8639636,5.88555809 C12.3349886,6.18473804 11.7713895,6.44719818 11.1729841,6.67261959 C10.1758542,4.83412301 9.10938497,3.17790433 7.97339408,1.70387244 C8.65854214,1.5391344 9.33052392,1.45681093 9.98952164,1.45681093 L9.98952164,1.45681093 Z M3.30405467,4.6952164 C4.13644647,3.6461959 5.15084282,2.83963554 6.3476082,2.276082 C7.4228246,3.70683371 8.48063781,5.34583144 9.52127563,7.19275626 C6.88519362,7.88646925 4.25785877,8.23334852 1.63908884,8.23321185 C1.91671982,6.923918 2.47166287,5.74446469 3.30405467,4.6952164 L3.30405467,4.6952164 Z M2.02915718,13.0657859 C1.64756264,12.0902961 1.45681093,11.064738 1.45681093,9.98938497 C1.45681093,9.86792711 1.46127563,9.77685649 1.46984055,9.71621868 C4.6090205,9.71621868 7.52701595,9.31312073 10.2237813,8.50651481 C10.5013212,9.04410023 10.7311162,9.52537585 10.9132118,9.95038724 C10.8780866,9.96769932 10.8221412,9.98710706 10.7440547,10.0088383 C10.6657403,10.0305239 10.6095216,10.0455581 10.574533,10.0543508 L10.0933941,10.2234169 C9.76373576,10.3448747 9.33220957,10.5530296 8.7991344,10.8476993 C8.26592255,11.1428246 7.70013667,11.4938041 7.10177677,11.9014579 C6.50341686,12.3091572 5.88555809,12.8489294 5.24829157,13.5211845 C4.61093394,14.1931663 4.07548975,14.9148519 3.64191344,15.6865604 C2.94820046,14.9148519 2.41066059,14.0410023 2.02915718,13.0657859 L2.02915718,13.0657859 Z M9.98952164,18.5220957 C7.96036446,18.5220957 6.14806378,17.8716629 4.55248292,16.5710706 L4.7476082,16.7142141 C5.05107062,16.0463326 5.49758542,15.4046014 6.08738041,14.7890661 C6.67708428,14.1735308 7.24501139,13.6768565 7.79129841,13.2995444 C8.33758542,12.9225968 8.9315262,12.5671071 9.57330296,12.2328474 C10.2149431,11.8992255 10.6526196,11.6865604 10.8869704,11.5958087 C11.121139,11.5047836 11.3076082,11.4330752 11.4463326,11.3809567 L11.4722096,11.3678815 L11.4984055,11.3678815 C12.3479271,13.5964009 12.9552164,15.7557175 13.3192711,17.8455125 C12.2440091,18.2966287 11.1342597,18.521959 9.98952164,18.5220957 L9.98952164,18.5220957 Z M17.1697494,14.60041 C16.5280182,15.5933941 15.7257403,16.4151708 14.763508,17.0652847 C14.4076993,15.0709339 13.8530296,13.0372665 13.0984055,10.9649658 C14.8240091,10.6958542 16.5972665,10.8218223 18.4182688,11.3419134 C18.227426,12.5212301 17.8111617,13.6076082 17.1697494,14.60041 L17.1697494,14.60041 Z M18.3920729,9.87234624 C18.3053759,9.85512528 18.1968565,9.83544419 18.0668337,9.81389522 C17.9368109,9.79234624 17.7784055,9.7661959 17.5919362,9.73585421 C17.4057403,9.70551253 17.1973121,9.67740319 16.9676993,9.65134396 C16.7378588,9.6253303 16.4929385,9.60154897 16.232574,9.57986333 C15.9725285,9.55808656 15.6949886,9.54091116 15.4003189,9.52779043 C15.1051481,9.51485194 14.8061503,9.50829157 14.5025968,9.50829157 C14.1993622,9.50829157 13.88041,9.51708428 13.5467426,9.53430524 C13.2129841,9.55138952 12.8900683,9.58209567 12.5779499,9.62537585 C12.551754,9.581959 12.5193166,9.51038724 12.4803189,9.41061503 C12.4413667,9.3109795 12.4129385,9.23498861 12.3961276,9.18296128 C12.2311617,8.81876993 12.0403189,8.40683371 11.8233257,7.94738041 C12.4216856,7.70441913 12.9919818,7.42487472 13.5342597,7.10829157 C14.0760364,6.79170843 14.5092938,6.51006834 14.8346697,6.26296128 C15.1599089,6.01558087 15.4676993,5.7532574 15.7581321,5.47585421 C16.0487472,5.19840547 16.2370843,5.00555809 16.3241002,4.89712984 C16.4109339,4.78851936 16.4932574,4.68236902 16.5712073,4.57845103 L16.5842825,4.5653303 C17.8502506,6.10883827 18.4965376,7.88637813 18.5222323,9.89831435 L18.3920729,9.87234624 L18.3920729,9.87234624 Z" id="Shape"></path>
                </g>
            </g>
        </g>
    </g>
</svg>