<?xml version="1.0" encoding="UTF-8"?>
<svg width="11px" height="20px" viewBox="0 0 11 20" version="1.1" xmlns="http://www.w3.org/2000/svg" xmlns:xlink="http://www.w3.org/1999/xlink">
    <g id="Page-1" stroke="none" stroke-width="1" fill="none" fill-rule="evenodd">
        <g id="Artboard-1" transform="translate(-296.000000, -409.000000)" fill="#333333">
            <g id="facebook-logo" transform="translate(296.000000, 409.000000)">
                <g id="Capa_1">
                    <path d="M9.82878491,0.00412371134 L7.38282264,0 C4.63486792,0 2.85901887,1.91443299 2.85901887,4.87752577 L2.85901887,7.12639175 L0.399713208,7.12639175 C0.1872,7.12639175 0.015109434,7.30742268 0.015109434,7.53072165 L0.015109434,10.7890722 C0.015109434,11.0123711 0.187396226,11.1931959 0.399713208,11.1931959 L2.85901887,11.1931959 L2.85901887,19.4150515 C2.85901887,19.6383505 3.03110943,19.8191753 3.24362264,19.8191753 L6.45231698,19.8191753 C6.66483019,19.8191753 6.83692075,19.6381443 6.83692075,19.4150515 L6.83692075,11.1931959 L9.71242264,11.1931959 C9.92493585,11.1931959 10.0970264,11.0123711 10.0970264,10.7890722 L10.0982038,7.53072165 C10.0982038,7.42350515 10.0575849,7.32082474 9.98556981,7.24494845 C9.91355472,7.16907216 9.81544151,7.12639175 9.71340377,7.12639175 L6.83692075,7.12639175 L6.83692075,5.22 C6.83692075,4.30371134 7.04472453,3.8385567 8.18067925,3.8385567 L9.82839245,3.83793814 C10.0407094,3.83793814 10.2128,3.65690722 10.2128,3.43381443 L10.2128,0.408247423 C10.2128,0.185360825 10.0409057,0.00453608247 9.82878491,0.00412371134 L9.82878491,0.00412371134 Z" id="Shape"></path>
                </g>
            </g>
        </g>
    </g>
</svg>