<?xml version="1.0" encoding="UTF-8"?>
<svg width="20px" height="20px" viewBox="0 0 20 20" version="1.1" xmlns="http://www.w3.org/2000/svg" xmlns:xlink="http://www.w3.org/1999/xlink">
    <g id="Page-1" stroke="none" stroke-width="1" fill="none" fill-rule="evenodd">
        <g id="Artboard-1" transform="translate(-346.000000, -409.000000)" fill="#333333">
            <g id="github" transform="translate(346.000000, 409.000000)">
                <g id="Layer_1">
                    <path d="M9.97671233,0 C4.46705479,0 0,4.46705479 0,9.97671233 C0,15.4869863 4.46705479,19.9534247 9.97671233,19.9534247 C15.4863699,19.9534247 19.9534247,15.4869863 19.9534247,9.97671233 C19.9533562,4.46705479 15.4863014,0 9.97671233,0 L9.97671233,0 Z M12.7713699,17.5770548 C12.7139726,16.7963699 12.6497945,15.8292466 12.6460274,15.4376712 C12.6210959,15.1371233 12.5886301,14.3726712 11.8628767,13.8844521 C14.7442466,13.6431507 16.115411,12.0506164 16.2139726,9.94616438 C16.2963014,8.74773973 15.819863,7.69390411 14.9737671,6.84342466 C15.0167808,5.93369863 14.9463014,4.85554795 14.8877397,4.38171233 C14.2380137,4.19465753 12.7228082,4.99465753 12.2993836,5.3369863 C11.4064384,4.99027397 9.2209589,4.86869863 7.89280822,5.3369863 C6.95123288,4.67479452 5.87938356,4.26575342 5.29513699,4.37986301 C4.75575342,5.57520548 5.10246575,6.70506849 5.20780822,6.83972603 C4.51315068,7.47452055 3.54417808,8.25582192 3.80732877,9.89260274 C4.22945205,12.2926027 5.9180137,13.5871233 8.63664384,13.9038356 C8.05678082,14.0223288 7.95883562,14.4550685 7.91020548,14.6427397 C6.08445205,15.3959589 5.56260274,14.1776027 5.33184932,13.8602055 C4.56554795,12.9117808 3.87773973,13.1867808 3.83534247,13.2017123 C3.79417808,13.2166438 3.7630137,13.2765068 3.76739726,13.3052055 C3.8060274,13.509726 4.22321918,13.7173973 4.24376712,13.7341781 C4.80931507,14.1556849 5.01883562,14.9170548 5.14787671,15.1340411 C5.95910959,16.4678082 7.84472603,15.914726 7.86280822,15.9259589 C7.8640411,16.0425342 7.84972603,17.0240411 7.83849315,17.7878767 C4.40034247,16.8487671 1.87061644,13.7123288 1.87061644,9.97671233 C1.87061644,5.49965753 5.49965753,1.87068493 9.97664384,1.87068493 C14.4536301,1.87068493 18.0827397,5.49965753 18.0827397,9.97671233 C18.0827397,13.470411 15.8691781,16.4378082 12.7713699,17.5770548 L12.7713699,17.5770548 Z" id="Shape"></path>
                </g>
            </g>
        </g>
    </g>
</svg>