<?xml version="1.0" encoding="UTF-8"?>
<svg width="20px" height="9px" viewBox="0 0 20 9" version="1.1" xmlns="http://www.w3.org/2000/svg" xmlns:xlink="http://www.w3.org/1999/xlink">
    <title>left</title>
    <defs></defs>
    <g id="Page-1" stroke="none" stroke-width="1" fill="none" fill-rule="evenodd">
        <g id="Artboard-1" fill="#000000">
            <g id="left">
                <g id="Capa_1">
                    <path d="M19.8698785,3.06388664 C19.8003239,2.99453441 19.7119433,2.95991903 19.6038866,2.95991903 L5.17842105,2.95991903 L5.17842105,0.370728745 C5.17842105,0.216518219 5.10506073,0.1048583 4.95882591,0.0355060729 C4.81222672,-0.0260728745 4.67736842,-0.00291497976 4.55417004,0.1048583 L0.115506073,4.19668016 C0.0384615385,4.27384615 0,4.36631579 0,4.47412955 C0,4.5742915 0.0384615385,4.66299595 0.115506073,4.74 L4.55421053,8.78566802 C4.67753036,8.88582996 4.81238866,8.90534413 4.9588664,8.8434413 C5.10510121,8.78190283 5.17846154,8.67024291 5.17846154,8.5082996 L5.17846154,5.91910931 L19.60417,5.91910931 C19.7119838,5.91910931 19.8006883,5.88433198 19.869919,5.81518219 C19.9391903,5.74591093 19.9738057,5.65740891 19.9738057,5.54947368 L19.9738057,3.33 C19.9739271,3.22210526 19.9391498,3.13331984 19.8698785,3.06388664 L19.8698785,3.06388664 Z" id="Shape"></path>
                </g>
            </g>
        </g>
    </g>
</svg>