<?xml version="1.0" encoding="UTF-8"?>
<svg width="25px" height="14px" viewBox="0 0 25 14" version="1.1" xmlns="http://www.w3.org/2000/svg" xmlns:xlink="http://www.w3.org/1999/xlink">
    <g id="Page-1" stroke="none" stroke-width="1" fill="none" fill-rule="evenodd">
        <g id="Artboard-1" transform="translate(-179.000000, -412.000000)" fill="#333333">
            <g id="vk" transform="translate(179.000000, 412.000000)">
                <g id="Layer_1">
                    <g id="XMLID_1_">
                        <path d="M21.0826607,8.86742197 C21.8952379,9.66509827 22.7528868,10.4155954 23.481679,11.293711 C23.8036193,11.6839306 24.1084163,12.0866127 24.3415815,12.5394682 C24.6719727,13.1832254 24.3727292,13.8916416 23.7986292,13.9300809 L20.2299214,13.9284624 C19.3094942,14.0052601 18.5752289,13.6326821 17.957828,12.9999306 C17.4637302,12.4939075 17.0061726,11.9553526 16.5310692,11.4322543 C16.3362954,11.2184509 16.1324267,11.0172717 15.8888789,10.8582543 C15.4017028,10.5403006 14.9788342,10.6376532 14.7004364,11.1485318 C14.4168875,11.6681503 14.3525799,12.243526 14.3247321,12.8226243 C14.2865017,13.6675607 14.0324908,13.8896994 13.1883634,13.9283815 C11.3843712,14.0139191 9.67229284,13.7395029 8.08182744,12.8244855 C6.67961662,12.0178266 5.59226337,10.879052 4.64583948,9.58983815 C2.80313389,7.07946821 1.39198922,4.32098266 0.123705547,1.48521387 C-0.161774983,0.846312139 0.0470032787,0.503352601 0.748108691,0.491213873 C1.91232517,0.468473988 3.07638069,0.470092486 4.24196542,0.489595376 C4.71513712,0.496554913 5.028385,0.769433526 5.2110861,1.21889017 C5.84096223,2.77612717 6.61168722,4.25769942 7.57911772,5.63099422 C7.83675042,5.99661272 8.09945367,6.36223121 8.47354826,6.61957225 C8.88740247,6.90450867 9.2025015,6.81006936 9.39719488,6.34653179 C9.52073946,6.05261272 9.57482542,5.73603468 9.60267325,5.42123699 C9.69490914,4.33821965 9.70706238,3.25706358 9.5452874,2.17784971 C9.44596883,1.50431214 9.06865484,1.06828902 8.40022636,0.94083237 C8.05913065,0.875849711 8.10991673,0.748231214 8.27507209,0.552473988 C8.56192086,0.214855491 8.8317068,0.00469364162 9.36950802,0.00469364162 L13.4026952,0.00469364162 C14.0376419,0.130693642 14.1786517,0.417491329 14.2655756,1.05987283 L14.2690364,5.56439306 C14.2621147,5.81307514 14.392581,6.5510289 14.8380658,6.71563006 C15.1946147,6.83280925 15.4296311,6.54601156 15.6435604,6.31869364 C16.6092202,5.28819653 17.2984138,4.07035838 17.9141246,2.80930636 C18.1873714,2.25480925 18.4223073,1.67894798 18.6499996,1.10357225 C18.8186962,0.676612717 19.0834116,0.466531792 19.5617344,0.47583815 L23.4434486,0.479317919 C23.5585423,0.479317919 23.6750042,0.481017341 23.786476,0.500196532 C24.4405781,0.612277457 24.6198184,0.895190751 24.4178009,1.5374104 C24.0994824,2.54500578 23.4801498,3.38468208 22.8745802,4.22824277 C22.2272388,5.12885549 21.5349063,5.99863584 20.8929574,6.9045896 C20.3031628,7.73188439 20.3500051,8.14889017 21.0826607,8.86742197 L21.0826607,8.86742197 L21.0826607,8.86742197 Z" id="XMLID_807_"></path>
                    </g>
                </g>
            </g>
        </g>
    </g>
</svg>